:SAMPLES-PER-SECOND 30
:FRAME-RANGE 1-1700
:FULLY-SPECIFIED
:DEGREES
1276
root  -31.9026 33.2796 -36.6296 -16.2591 6.38127 -1.17569
RightUpLeg  -16.5246 11.0239 8.72017
RightLeg  69.1543 -6.25673 -18.3709
RightFoot  -26.3125 1.43825 12.2695
RightToes  -1.16417e-010 0 -3.6325e-017
Spine  22.0086 0.481093 -1.21398
Spine1  3.44488 -4.29096 7.1775
HEad  -0.630314 25.3258 -13.7526
LeftShoulder1  3.04929 -5.52646 -27.6976
LeftArm  86.3833 -39.4048 -94.6665
LeftForeArm  -13.8171 -16.3524 -13.4478
LeftHand  0.0644826 3.27412 -4.72071
RightShoulder  12.5883 23.9229 39.592
RightArm  22.1934 11.3719 17.5631
RightForeArm  29.2958 34.409 5.9788
RightHand  1.22177 4.93779 13.3474
LeftUpLeg  -97.3152 15.5082 -75.763
LeftLeg  121.113 -0.595038 0.391846
LeftFoot  5.69743 1.88562 -12.7778
LeftToes  1.03528e-008 1.55373e-010 -2.26046e-010
1277
root  -32.0199 33.0375 -36.7273 -16.8939 7.01743 -2.11076
RightUpLeg  -15.9616 9.84104 9.78073
RightLeg  69.036 -6.48807 -18.8542
RightFoot  -27.9567 1.4846 11.4393
RightToes  -1.16417e-010 0 -3.6325e-017
Spine  21.8617 0.4593 -1.26254
Spine1  3.74366 -4.33514 7.21593
HEad  0.334364 25.3082 -13.4556
LeftShoulder1  3.05058 -5.50411 -27.7986
LeftArm  88.9394 -38.9288 -93.944
LeftForeArm  -16.8786 -17.0921 -12.9172
LeftHand  0.0635627 3.14193 -4.519
RightShoulder  12.7288 23.9714 40.0007
RightArm  21.1492 11.4871 17.4197
RightForeArm  31.1356 35.0313 6.03209
RightHand  1.218 5.03581 13.175
LeftUpLeg  -97.6427 15.5514 -75.9464
LeftLeg  120.962 -0.134688 -0.315138
LeftFoot  4.58544 1.72501 -12.492
LeftToes  1.03528e-008 1.55373e-010 -2.26046e-010
1278
root  -32.3575 32.8071 -36.5151 -17.8025 7.54111 -3.45776
RightUpLeg  -15.2647 7.93404 11.7151
RightLeg  69.5864 -6.25553 -18.7973
RightFoot  -28.8103 1.41241 10.4467
RightToes  -1.16417e-010 0 -3.6325e-017
Spine  21.0547 0.964178 -1.45529
Spine1  3.60507 -4.49429 7.05553
HEad  0.788254 25.131 -12.9756
LeftShoulder1  3.07177 -5.47199 -28.1658
LeftArm  88.6646 -39.0008 -93.751
LeftForeArm  -16.2587 -17.0432 -12.9271
LeftHand  0.0629778 3.10684 -4.37153
RightShoulder  12.6882 23.6487 40.3898
RightArm  20.7064 11.4811 17.2571
RightForeArm  32.1941 35.4349 6.07531
RightHand  1.17721 5.03963 12.7228
LeftUpLeg  -98.6326 17.2642 -76.8313
LeftLeg  122.581 1.00813 -1.96334
LeftFoot  3.0996 1.35748 -10.8395
LeftToes  1.03528e-008 1.55373e-010 -2.26046e-010
1279
root  -32.5712 32.6526 -36.408 -18.9692 8.28172 -4.56477
RightUpLeg  -14.3491 5.96785 13.0203
RightLeg  69.846 -6.14112 -18.7538
RightFoot  -29.3019 1.35006 9.78665
RightToes  -1.16417e-010 0 -3.6325e-017
Spine  20.4018 1.26106 -1.65859
Spine1  3.52528 -4.62419 6.76568
HEad  0.909879 25.1006 -12.6612
LeftShoulder1  3.09862 -5.45352 -28.5456
LeftArm  88.7952 -39.0084 -93.5592
LeftForeArm  -16.1053 -17.1537 -12.8065
LeftHand  0.0659159 3.17132 -4.53105
RightShoulder  12.5483 23.3728 40.3582
RightArm  20.4425 10.6847 17.3902
RightForeArm  32.5816 36.0232 6.20684
RightHand  1.16981 4.9355 12.7752
LeftUpLeg  -99.235 19.0001 -78.1283
LeftLeg  124.074 1.58483 -2.65788
LeftFoot  3.0268 1.1843 -9.52635
LeftToes  1.03528e-008 1.55373e-010 -2.26046e-010
1280
root  -32.6446 32.6918 -36.3677 -20.2103 9.4937 -5.76367
RightUpLeg  -12.3929 3.39991 13.7467
RightLeg  68.1936 -6.69552 -18.558
RightFoot  -30.5392 1.21598 8.40865
RightToes  -1.16417e-010 0 -3.6325e-017
Spine  19.3671 1.36538 -2.0017
Spine1  3.80167 -4.86422 7.13114
HEad  0.87568 25.0425 -12.2714
LeftShoulder1  3.13707 -5.47484 -28.9001
LeftArm  89.1784 -38.426 -93.138
LeftForeArm  -16.5256 -17.4054 -12.5764
LeftHand  0.072935 3.03958 -4.58644
RightShoulder  12.214 22.6403 40.4047
RightArm  21.2547 9.98101 16.9889
RightForeArm  32.522 37.4161 6.58485
RightHand  1.18911 4.75495 13.2308
LeftUpLeg  -99.2698 20.335 -79.0558
LeftLeg  125.588 1.8402 -2.85741
LeftFoot  2.87774 0.993246 -8.09511
LeftToes  1.03528e-008 1.55373e-010 -2.26046e-010
